<mxfile host="65bd71144e">
    <diagram id="Khcl1GSAQQadtSJtrXCP" name="Page-1">
        <mxGraphModel dx="719" dy="569" grid="1" gridSize="10" guides="1" tooltips="1" connect="1" arrows="1" fold="1" page="1" pageScale="1" pageWidth="850" pageHeight="1100" math="0" shadow="0">
            <root>
                <mxCell id="0"/>
                <mxCell id="1" parent="0"/>
                <mxCell id="21" style="edgeStyle=none;html=1;exitX=0.5;exitY=1;exitDx=0;exitDy=0;entryX=0;entryY=0.5;entryDx=0;entryDy=0;" edge="1" parent="1" source="2" target="20">
                    <mxGeometry relative="1" as="geometry"/>
                </mxCell>
                <mxCell id="2" value="TF&lt;sub&gt;1&lt;/sub&gt;: R&lt;sup&gt;3&lt;/sup&gt;-&amp;gt;R&lt;sup&gt;4&lt;/sup&gt;" style="rounded=0;whiteSpace=wrap;html=1;" parent="1" vertex="1">
                    <mxGeometry x="160" y="120" width="120" height="60" as="geometry"/>
                </mxCell>
                <mxCell id="23" style="edgeStyle=none;html=1;exitX=0.5;exitY=1;exitDx=0;exitDy=0;entryX=1;entryY=0.5;entryDx=0;entryDy=0;" edge="1" parent="1" source="3" target="20">
                    <mxGeometry relative="1" as="geometry"/>
                </mxCell>
                <mxCell id="3" value="TF&lt;sub&gt;2&lt;/sub&gt;" style="rounded=0;whiteSpace=wrap;html=1;" parent="1" vertex="1">
                    <mxGeometry x="440" y="120" width="120" height="60" as="geometry"/>
                </mxCell>
                <mxCell id="10" style="edgeStyle=none;html=1;exitX=1;exitY=0.5;exitDx=0;exitDy=0;entryX=0;entryY=0.5;entryDx=0;entryDy=0;" parent="1" source="5" target="9" edge="1">
                    <mxGeometry relative="1" as="geometry"/>
                </mxCell>
                <mxCell id="5" value="(RGBA)&lt;sub&gt;1&lt;/sub&gt;" style="whiteSpace=wrap;html=1;aspect=fixed;" parent="1" vertex="1">
                    <mxGeometry x="180" y="320" width="80" height="80" as="geometry"/>
                </mxCell>
                <mxCell id="11" style="edgeStyle=none;html=1;entryX=1;entryY=0.5;entryDx=0;entryDy=0;" parent="1" source="6" target="9" edge="1">
                    <mxGeometry relative="1" as="geometry"/>
                </mxCell>
                <mxCell id="6" value="(RGBA)&lt;span style=&quot;font-size: 10px;&quot;&gt;&lt;sub&gt;2&lt;/sub&gt;&lt;/span&gt;" style="whiteSpace=wrap;html=1;aspect=fixed;" parent="1" vertex="1">
                    <mxGeometry x="460" y="320" width="80" height="80" as="geometry"/>
                </mxCell>
                <mxCell id="14" style="edgeStyle=none;html=1;entryX=0.5;entryY=0;entryDx=0;entryDy=0;" parent="1" source="9" target="13" edge="1">
                    <mxGeometry relative="1" as="geometry"/>
                </mxCell>
                <mxCell id="9" value="(RGBA)&lt;sub&gt;i&lt;/sub&gt;" style="whiteSpace=wrap;html=1;aspect=fixed;" parent="1" vertex="1">
                    <mxGeometry x="320" y="320" width="80" height="80" as="geometry"/>
                </mxCell>
                <mxCell id="12" value="linear interpolation" style="text;html=1;align=center;verticalAlign=middle;resizable=0;points=[];autosize=1;strokeColor=none;fillColor=none;" parent="1" vertex="1">
                    <mxGeometry x="300" y="290" width="120" height="30" as="geometry"/>
                </mxCell>
                <mxCell id="13" value="TF i = F(Pi)" style="rounded=0;whiteSpace=wrap;html=1;" parent="1" vertex="1">
                    <mxGeometry x="300" y="500" width="120" height="60" as="geometry"/>
                </mxCell>
                <mxCell id="15" value="?" style="text;html=1;align=center;verticalAlign=middle;resizable=0;points=[];autosize=1;strokeColor=none;fillColor=none;" parent="1" vertex="1">
                    <mxGeometry x="360" y="430" width="30" height="30" as="geometry"/>
                </mxCell>
                <mxCell id="17" value="" style="shape=image;verticalLabelPosition=bottom;labelBackgroundColor=default;verticalAlign=top;aspect=fixed;imageAspect=0;image=data:image/png,iVBORw0KGgoAAAANSUhEUgAAAzgAAABACAYAAADWFdKzAAAMPWlDQ1BJQ0MgUHJvZmlsZQAASImVVwdYU8kWnluSkEBogQhICb0J0quUEFoEAamCjZAECCXGhKBiRxYVXLtYwIauiii6FkAWG6JYWAR7XywIKOtiwa68SQFd95Xvne87d/575sx/zpw7c+8dADROcUSiHFQTgFxhnjg2LIgxITmFQeoGCNAEqsAKWHG4EhEzJiYSQBlq/y5vb0BvKFcdZFz/7P+vosXjS7gAIDEQp/Ek3FyIjwCAV3BF4jwAiDK7+Yw8kQxDBTpimCDES2Q4Q4ErZDhNgQ/KfeJjWRA3A6CixuGIMwBQb4d2Rj43A3Ko90PsJOQJhABoMCD2z82dxoM4FWIb6COCWMbvlfYdT8bfONOGOTmcjGGsmItcVIIFElEOZ9b/WY7/Lbk50qEYVlDVMsXhsbI5w7rdyp4WIcNqEPcJ06KiIdaG+L2AJ/eHGKVkSsMTFP6oIVfCgjUDdIideJzgCIgNIQ4V5kRFKu1p6YJQNsRwhaAzBXnseIj1IF7Cl4TEKX22iafFKmOhteliFlNpP88Ry+PKYj2QZicwlfyvMvlsJT+mXpAZnwQxBWKLfEFiFMTqEDtKsuMilD5jCjJZUUM+YmmsLH8LiGP5wrAgBT+Wny4OjVX6l+RKhuaLbcsUsKOU+FBeZny4oj5YM5cjzx/OBWvnC5kJQzx8yYTIobnw+MEhirljPXxhQpyS570oLyhWMRaniHJilP64GT8nTGY3g9hNkh+nHIsn5sEFqeDH00V5MfGKPPGCLM7YGEU++EoQCVggGDCAFGoamAaygKCtr64P3il6QgEHiEEG4AMHpWVoRJK8RwivcaAA/AkRH0iGxwXJe/kgH9q/DFsVVweQLu/Nl4/IBk8hzgURIAfeS+WjhMPREsETaBH8IzoHKhfmmwNV1v/v7UPWbxYmtEQqLdKhiAyNIU9iCDGYGE4MJdriBrg/7otHwmsgVBfcC/cemsc3f8JTQgfhEeE6oZNwe6qgUPxDluNAJ+QPVdYi7fta4FaQ0x0Pwv0gO2TG6bgBcMDdYBwmHgAju0MrS5m3rCqMH7j/NoPvnobSj+xERskjyIFkmx9Hqtupuw+zyGr9fX0UuaYN15s13PNjfNZ31efBNuJHT2wJdhhrwU5jF7BGrA4wsJNYPdaKHZfh4dX1RL66hqLFyvPJhjyCf8QberKySkqcqp16nT4r+vL4M2XvaMCaJpolFmRk5jGY8IvAZ7CFXMdRDBcnF1cAZN8XxevrNV3+3UDoF7/ZFsE97iccHBxs/GaL+AjAEVO4/Tu/2ayvwNcEfE+fX8WVivMVNlx2IcC3hAbcafrAGJgDGzgfF+ABfEEgCAFjQTSIB8lgCsw+E65zMZgB5oCFoBiUgpVgHdgEtoIdYA/YDw6BOtAIToNz4BJoB9fBXbh6usBz0A/egk8IgpAQKkJD9BETxBKxR1wQL8QfCUEikVgkGUlFMhAhIkXmIIuQUmQ1sgnZjlQhvyLHkNPIBaQDuY08RHqRV8hHFEPVUB3UCLVCR6NeKBONQOPRyWgGOh0tQIvQ5egGtBLdh9aip9FL6HW0E32ODmAAU8XomCnmgHlhLCwaS8HSMTE2DyvByrBKrAZrgM/5KtaJ9WEfcCJOwxm4A1zB4XgCzsWn4/PwZfgmfA9eizfjV/GHeD/+lUAlGBLsCT4ENmECIYMwg1BMKCPsIhwlnIV7qYvwlkgk0onWRE+4F5OJWcTZxGXEzcQDxFPEDuJj4gCJRNIn2ZP8SNEkDimPVEzaSNpHOkm6QuoivVdRVTFRcVEJVUlREaoUqpSp7FU5oXJFpVvlE1mTbEn2IUeTeeRZ5BXkneQG8mVyF/kTRYtiTfGjxFOyKAspGyg1lLOUe5TXqqqqZqrequNVBaoLVDeoHlQ9r/pQ9YOatpqdGkttkppUbbnabrVTarfVXlOpVCtqIDWFmkddTq2inqE+oL5Xp6k7qrPVeerz1cvVa9WvqL/QIGtYajA1pmgUaJRpHNa4rNGnSda00mRpcjTnaZZrHtO8qTmgRdNy1orWytVaprVX64JWjzZJ20o7RJunXaS9Q/uM9mMaRjOnsWhc2iLaTtpZWpcOUcdah62TpVOqs1+nTadfV1vXTTdRd6Zuue5x3U46Rreis+k59BX0Q/Qb9I8jjEYwR/BHLB1RM+LKiHd6I/UC9fh6JXoH9K7rfdRn6IfoZ+uv0q/Tv2+AG9gZjDeYYbDF4KxB30idkb4juSNLRh4aeccQNbQzjDWcbbjDsNVwwMjYKMxIZLTR6IxRnzHdONA4y3it8QnjXhOaib+JwGStyUmTZwxdBpORw9jAaGb0mxqahptKTbebtpl+MrM2SzArNDtgdt+cYu5lnm6+1rzJvN/CxGKcxRyLaos7lmRLL8tMy/WWLZbvrKytkqwWW9VZ9VjrWbOtC6yrre/ZUG0CbKbbVNpcsyXaetlm2262bbdD7dztMu3K7S7bo/Ye9gL7zfYdowijvEcJR1WOuumg5sB0yHeodnjoSHeMdCx0rHN8MdpidMroVaNbRn91cnfKcdrpdNdZ23msc6Fzg/MrFzsXrku5yzVXqmuo63zXeteXbvZufLctbrfcae7j3Be7N7l/8fD0EHvUePR6WnimelZ43vTS8YrxWuZ13pvgHeQ937vR+4OPh0+ezyGfv3wdfLN99/r2jLEewx+zc8xjPzM/jt92v05/hn+q/zb/zgDTAE5AZcCjQPNAXuCuwG6mLTOLuY/5IsgpSBx0NOgdy4c1l3UqGAsOCy4JbgvRDkkI2RTyINQsNCO0OrQ/zD1sdtipcEJ4RPiq8JtsIzaXXcXuH+s5du7Y5gi1iLiITRGPIu0ixZEN49BxY8etGXcvyjJKGFUXDaLZ0Wui78dYx0yP+W08cXzM+PLxT2OdY+fEtsTR4qbG7Y17Gx8UvyL+boJNgjShKVEjcVJiVeK7pOCk1UmdE0ZPmDvhUrJBsiC5PoWUkpiyK2VgYsjEdRO7JrlPKp50Y7L15JmTL0wxmJIz5fhUjamcqYdTCalJqXtTP3OiOZWcgTR2WkVaP5fFXc99zgvkreX18v34q/nd6X7pq9N7Mvwy1mT0ZgZklmX2CViCTYKXWeFZW7PeZUdn784ezEnKOZCrkpuae0yoLcwWNk8znjZzWofIXlQs6pzuM33d9H5xhHiXBJFMltTn6cAf+VapjfQn6cN8//zy/PczEmccnqk1UzizdZbdrKWzugtCC36Zjc/mzm6aYzpn4ZyHc5lzt89D5qXNa5pvPr9ofteCsAV7FlIWZi/8vdCpcHXhm0VJixqKjIoWFD3+Keyn6mL1YnHxzcW+i7cuwZcIlrQtdV26cenXEl7JxVKn0rLSz8u4yy7+7Pzzhp8Hl6cvb1vhsWLLSuJK4cobqwJW7Vmttbpg9eM149bUrmWsLVn7Zt3UdRfK3Mq2rqesl67v3BC5oX6jxcaVGz9vytx0vTyo/ECFYcXSinebeZuvbAncUrPVaGvp1o/bBNtubQ/bXltpVVm2g7gjf8fTnYk7W37x+qVql8Gu0l1fdgt3d+6J3dNc5VlVtddw74pqtFpa3btv0r72/cH762scarYfoB8oPQgOSg8++zX11xuHIg41HfY6XHPE8kjFUdrRklqkdlZtf11mXWd9cn3HsbHHmhp8G47+5vjb7kbTxvLjusdXnKCcKDoxeLLg5MAp0am+0xmnHzdNbbp7ZsKZa83jm9vORpw9fy703JkWZsvJ837nGy/4XDh20eti3SWPS7Wt7q1Hf3f//WibR1vtZc/L9e3e7Q0dYzpOXAm4cvpq8NVz19jXLl2Put5xI+HGrZuTbnbe4t3quZ1z++Wd/Duf7i64R7hXcl/zftkDwweVf9j+caDTo/P4w+CHrY/iHt19zH38/InkyeeuoqfUp2XdJt1VPS49jb2hve3PJj7rei56/qmv+E+tPyte2Lw48lfgX639E/q7XopfDr5a9lr/9e43bm+aBmIGHrzNffvpXcl7/fd7Pnh9aPmY9LH704zPpM8bvth+afga8fXeYO7goIgj5sh/BTCoaHo6AK92A0BNBoAGz2eUiYrzn1wQxZlVjsB/woozolw8AKiBjew3nnUKgINQrRZAbqiyX/j4QIC6ug7r0FlNfq6UCRGeA7YFy9DtNdEi8IMozpzf5f1jC2SsbuDH9l/hQHtgERZOygAAAIplWElmTU0AKgAAAAgABAEaAAUAAAABAAAAPgEbAAUAAAABAAAARgEoAAMAAAABAAIAAIdpAAQAAAABAAAATgAAAAAAAACQAAAAAQAAAJAAAAABAAOShgAHAAAAEgAAAHigAgAEAAAAAQAAAzigAwAEAAAAAQAAAEAAAAAAQVNDSUkAAABTY3JlZW5zaG90pg/XpAAAAAlwSFlzAAAWJQAAFiUBSVIk8AAAAdVpVFh0WE1MOmNvbS5hZG9iZS54bXAAAAAAADx4OnhtcG1ldGEgeG1sbnM6eD0iYWRvYmU6bnM6bWV0YS8iIHg6eG1wdGs9IlhNUCBDb3JlIDYuMC4wIj4KICAgPHJkZjpSREYgeG1sbnM6cmRmPSJodHRwOi8vd3d3LnczLm9yZy8xOTk5LzAyLzIyLXJkZi1zeW50YXgtbnMjIj4KICAgICAgPHJkZjpEZXNjcmlwdGlvbiByZGY6YWJvdXQ9IiIKICAgICAgICAgICAgeG1sbnM6ZXhpZj0iaHR0cDovL25zLmFkb2JlLmNvbS9leGlmLzEuMC8iPgogICAgICAgICA8ZXhpZjpQaXhlbFlEaW1lbnNpb24+NjQ8L2V4aWY6UGl4ZWxZRGltZW5zaW9uPgogICAgICAgICA8ZXhpZjpQaXhlbFhEaW1lbnNpb24+ODI0PC9leGlmOlBpeGVsWERpbWVuc2lvbj4KICAgICAgICAgPGV4aWY6VXNlckNvbW1lbnQ+U2NyZWVuc2hvdDwvZXhpZjpVc2VyQ29tbWVudD4KICAgICAgPC9yZGY6RGVzY3JpcHRpb24+CiAgIDwvcmRmOlJERj4KPC94OnhtcG1ldGE+CidaliUAAAAcaURPVAAAAAIAAAAAAAAAIAAAACgAAAAgAAAAIAAAEajdSiCCAAARdElEQVR4AeydB3gVxRbHTwpFejMEBCKE3gNSBERCKFJDrxGQKk26Iv0BgqIiSABBmoTQCR2EECGPLkFBivTyINKLoYSW8OZMvl03N3uTe+/uzvXuPfN9cHdn28xv/jPZszNzxuM1C0CBCBABIkAEiAARIAJEgAgQASJgAgIeZOCYoBQpC0SACBABIkAEiAARIAJEgAhwAmTgkBCIABEgAkSACBABIkAEiAARMA0BhwycxCdXIP7qMtNAoIwQASJABIgAESACRIAIEAEi4LoEPLwzQ6biQ3gGHDJwEh6dg/gLoa5LgFJOBIgAESACRIAIEAEiQASIgGkIeHhngczlpvD8kIFjmmKljBABIkAEiAARIAJEgAgQAfckQAaOe5Y75ZoIEAEiQASIABEgAkSACJiSABk4pixWyhQRIAJEgAgQASJABIgAEXBPAmTguGe5U66JABEgAkSACBABIkAEiIApCZCBY8pipUwRASJABIgAESACRIAIEAHXJnA1Ng4OHr8BJ8/dhRcvE6BKOV+oXiEfFMyXNdWMkYGTKh46SASIABEgAkSACBABIkAEiIBIAk+fvYKp8w5D6LJj8CohEXJkywDxLO75iwSejOAgf1gwuSFkzOClmiwycFSxUCQRIAJEgAgQASJABIgAESACogm8fg3QcdhW2LrnEtSv4QfffV4H/N7KBk+evoT+E6Ng3c7zPEk1K70FPy9opZo8MnBUsVAkESACRIAIEAEiQASIABEgAqIJrNh6BnqPjeSPPb+zO/jmySwn4fGTF1A+eCncuR/P4w6t7gRliuaWj0sbZOBIJOiXCBABIkAEiAARIAJEgAgQAacS6D5qB6z5+RxPw7pZzaFBTb9k6cHenS27L/G4KUNrwcCQgGTHcYcMnBRIKIIIEAEiQASIABEgAkSACBABZxAYMnUPLFhzArw8PeDAyo5Q2qKH5pPJu2FxxEmetJDmpWDuhHopkkkGTgokFEEEiAARIAJEgAgQASJABIiAMwg8jHsOEZHnIaC0DwSU8kmRhPrd18KhYzd4/Ji+1eGzXlVSnEMGTgokFEEEjCOAnkD2xsRCYLWCxj2E7pyMQMyJm1CpTF7wZF+CKGgnQBrWxpD0qI0fXu0sDVLZaS87s97BWZq05OkOGkXW+WvNg/jnr3j2Ixe1geoV81mioCFqKYhQhNMJYLfkyG/3Qob0XnBgRUfuOUOZqL4TdvGxmZ4eHnD7YF/lIU3bWGk82D2xS9SI8Nftx9Bt5A74/fQtuBbdx6prQyOe7a73fMQmI/oF/gj12fjdRV80hMyZ0rkFiqBua+D4mTtW8/puxfyw+YcWVo9bO0AatkbGtnh30aORbamzNOguZWebkl3rLCP1iCScpUnLUtCq0TJNlsCte08tbyvv49ozW+a1lPetbRj9DhfBPKh1HfkzfzzOzcE5OmqBenDUqFCcUwnMW/UHDP8qmqdhT1g7qMy+vitDrzE7YeW2s8wYAYg7OlB5yObtuw/iYWPURdi+9zJcv/EIbtx5Ag/ingG6Jsz0RjooUiA7++rvA/Xe9YNmdYuAt5enzfdWO3H/b7EQMmI7/P3oOYR/0xga1S6sdhrFGUBgfeQFwAmLJYvkgtUzmqa5OJgBSRB+y9qdV8Hvf96Wn4t/BGoE5Adv7yQd58iaAbq2LCMft2WDNGwLpbTPMZseRbalztag2coubbW63hki9Yh0nK1JyxLSolE0TJ7Ev+S3RGNpM5vEf/rCPfkR+GFs56LW8r61DSPf4e49jIeaHVdC7K3HfF7OzoWtITv7e6YWhBg4g6fsZquPJkI69scV/+FQEXw5TUwESGD/4bFXrxJhUJdKUMo/l1o6Kc6NCBhZOa6zSjH4i90QdfB/fJiDhLVIwexQ/O2ckJDwGv44eyfZV4wCebPAp2x850etykqn2/WL40SD+2+El2wF3rBpjaBJnSKpXk/1JVU8Dh1En/k9mJGTM3tGWDm9CVRjX6LMHJQGTtlieeDgqo6asmuvhjU9zA0uNoMeRbel9mrQqHbUDGVnxiomWo/I0B5NGqVHtbLUS6PY81U4aAHgfBgMzjZwnj1PgGZ913PuhfJlhV1L2kK+N/9xH23JQoiBk6f6HHnlUcsESPto9KAlZvYXDym/9GudgFEGztFTt6D94C3JjJdmgf4wouc7ySaxYaUO3/QnjJ91EPBrgRTQU8fscUF2zeX47fRtaNpnPV99F42bpoGpGzf4LKovEnF9f9fuOAc9Ru+ErJnTw0HmlaUgayDNGpQGzofBpWHO+CCHs+qIhq09DFegTmD1C3tJ3T24sh5Ft6WOaNDIdtSVy86M9U60HpGhvZo0Uo9qZaqXRjsN28Z6ci7yRzjTwEHjpsPQLfzjdEHfrLB1fksozEbapBaEGDg47Of2/ad8RdJB7Ou5MnzyYQC0+aA4lCueR/MwIOV9adt1CRhh4GAD2KhnhDwpDel8Oew96N+5olVQeE3jXhHw9FnSRDY8cdnXjSE4yN/qNcoDD/5+BlXbLoebd59A344VYNqI2srDVrepvlhFo/nAgEm/wE/rT0HV8r6wg31Q0Tr0UHOCDLqB0sDp0qI0N8wdeZSjGrZ8Fmp61fazMDH0ILRuWAwmDappeYpb7ruiHkW3pY5q0Oh21BXLzoyVTLQekaEjmjRaj2plq4dGe4zeAau3J61H4ywDB50J4Mfp3YevAY62wXlAaOSkFYQYOFIiXrJhaLmqzpZ2oX4NP4gIVZ8cJJ9EG25HwAgDp/XATbBz/1WZJQ6HnDw47ZessTP3w4yffpOvCx1b1+a5C10+2w44HjZblvRwYnNXyMWGR9kTqL7YQ8u2c9HYrBAcBk/ZOOMh3SrDxE9q2Hahi52ll4GjVcOIbc+v12DczAPynKDRH1eDkb2ruhhR25KL49ZjTt6CEoVzQn6fLGle5Ip6FN2WatWgUe2oK5ZdmoK0OMFePVtcLmRXtB4xU1o0aZQe1WDroVFnGzjIq92gzbCLTSsoUTgXM25agG8e68PSlByEGjgXrj6EgJZh8vNxuA9+XaRABJQE9DZwEhNfQ94ac+EZGx4jhV/XdLZpvtemXy5C5+Hb+GWdmpaEOWwxKVu8rOEXD2wYMODX6sFdK/Fte/6j+mIPLdvPnTLvMEyd9yufB7g+NBiC3i1k+8UucqYeBo5WDeMHha8XHpHXKpDQoVGJxqXZAn6hrdo2HM5cus+1dWJT1xQeINXy7Ep6FN2WatUg8jayHXWlslPTXmpxjuo5tXvqfUy0HjH9WjVppB7V+GrVqDMNHNRgn3GRsGLrGSjql4NNY2kDb+Z6I1k2t0Vf5s5z0JGOZRBq4OCYwI8+T3rpw4TsW94BKpR80zJNtO/mBPQ2cNBDWvGGi5JRvXWgL2TK6J0sTm2nJ/PYhhUIX8p6ti2ndkqKOJzDU7FFGFyNjQOf3Jng1JZuDrmEtqwv+1d0gPIlqL6kAG5nBPbelGi0mE+cRM9qR9Z2tvMO//7TtRo4WjSM9WXy3ENw4txdVVDYc4o9qGYLaNhUaRMuZwtX38ah12kFV9KjyLZUiwaVzI1sR0WXHc5DiL31iGcPRwSg0xSjgqN6Nio9avcVqUd8vh6aNFKPaoy0atSZBg6OnsFRNLi8w77wDtzIscxjuWZLmaddH1jy5QeWh8Sug6Mc7pM+nRfc3P8x96qWIlUU4dYE9DZwcGJzoTrzk82lWfFtE5sm/KOXFHxJsWf9lFXMhTUaRhjaNy4BCyY3cKg8x8zYDzOXJg2PwzWBbuyj+uIQSJWLlBMn0e0lji02U9Bq4GjRMM6zXLTuJO8hDQ4qCpeuPZTHcCPjKUNrwcCQADPh5nlZuuE09J8Yxbczsvoau7cP4N85W4Kr6FFkW6pFg0rmRrejIstuApvD9u2iGJ49a6u3K/OuZVuLnrU8155rReoR06WHJo3Woxo/LRp1loFz7soDqNFhBXdQ9sWQWoDz9S3DL4euQXC/DTCAzaWeyuZUWwahPTjN+27gk4QwEQGlfOC/4e0t00P7RAD0NnAQaasBmyDywD9zcHDV2wi2OBR61NI7VGu3XPYdP3N0IHRv7Zh7afS+Fn3kOk8e1Rd9S2l2+DG+mCzetQMzQn900AjVN1X63U2rgaNFwzgBN5YtaovuqTFYfmVNy7mHfhTE3qn32KShFPjUWpXfgu0/trI5Aa6kR1FtqRYNKsEb3Y6KLLtx3x+A75Yc5dkb2686fNqzijKrum5r0bOuCUnjZqL0iMnQQ5NG61ENlxaNOsvA6fefKAjbeJpnZ1SfapA7Z/LeSnRdPWf5ce7pdvrIOtCrXcoRNkINnEJsRXH844ehW6syMGtMXb5N/xEBJQEjDBz0tNKSGTmS/vB5ZYrmZmuiNIW3C2RTPl7T9p8X7/Nx+NJNYtZ15hPjpH17fgu8P58vDIrX4Bo8348JtOdyOjcVAsfO3IH3Oq3kZ2Dv2Pkd3Q0d7pFKUgw5pMXA0VPDmLkXbP2n3NXmyPn8anht6Nepgrzvyhs4Rjzu8XOIY84F6nVby1c0x/ygS/lhH70jZw1dkqPOrAVX0qOItlRPDRrdjoosO6MNHL30bE3nRsSL0COmWy9NGq1HNcZaNOosAwfX38FFW20Juxa3UV1iRpiBc42tFl+6yRI5rTNGBUKPNo592ZZvQhumJGCEgYOgcEXeYV9Fw76jsTI3XH+pbrWC0L5JSSjF5mPkzZMJrlyP4x6fcNKaf6Ec8rm2bMxa9juMmr6Pn5on5xtwOaqnLZelOAfTUK75T3K8lp4g+Sa0IRNIYI4nCjIDEr0EYcDubezmNkvQYuDopWGJJbLO8U6otAtmMXDwjy+uqP0X661KK6yfHQz1UnFm4Wp6NLot1UuDItpRkWVnpIGjp57Tqg96Hzdaj5hePTQpQo9qbLVo1BkGDjqP8K35Q7JlPdTyhXEeHmyUwN6PVacRCDNwcKEgHAcohT1L20HlsnmlXfp1EgEsl3OXH+j2dFx4qVWDYpruZ5SBg4nCHpzvmRHyzcKkcczWEooOCGLWhdi9GGTL/hu5O0O8r73DVJRp2bDrAnz46XY5KnpZe6hU2kfepw3tBOp0WQ1HmUtfDLgAK87LMkvQYuDopWGJpVkNnMPHb4C0rttfzJGJ1DuMf3BL++eWss/nmYZNa5xmT7Gr6dHItlQvDYpqR0WVnZEGjt56liuAoA0j9YhZ0EOTovSohtxRjTrDwMH049o3nqwxTeftqbq4OhpB6EL6JRshkMXKVANhBs6kOYdg2oIjnDsurocTpjNmsN5lr1ZAFKc/AXyJxkqnV8Bej3VsbouWYISBE3PiJnzJ9BfJXNdixbAMuGgU9rjgCuu+rBend/vyUCPAvonn+CKXT/HVofH7hWHVd00tH2XT/vhZB2D64qSx1ljBsb6kNsTFppvSSckI4OREnKSIAb3ToZc6swRHDRw9NSyxNKuBI+UPfwdP2Q0L157kUcXfzglHI0KUh23adhU9Gt2W6qlBUe2oqLIz0sBRilQPPSvvZ+S20XrEtOulSVF6VOPtqEadZeCo5cHeOGEGThu2UM+OvVd4+nDuw6HVnexNKz8fPXssjjgFXl4efBVyb/brwaw8fGlFF34vXibCgJCK0FpjL4JDiXPBi/Q2cLS81Ev49DRwcKGrfhOikjkYwOegL/VOTUtB87r+7GtrLqtfAKQ02fJ75348FKm3QD61Ixv2Nn9SfXnfno0WrCcoii1shQG9uKHLWcuAmm/QYx28ZgOnvTw9mS94D/6L+9gg49cN7InaNLeF5aW0zwiEjNgGG6MuchbZs2aA69G9TcPFUQNHTw1LMN3BwEFvP5JbbJx/M5etl2Vv+LfrUVRbqqcGbWlHleWEbmlxzY2yxXLD1KHvcTf/yuPWtkWVnSgDRw89W2OlV7woPWJ69dKkvXq0ZHXvYTyM/GYvHD97B9p9UAKG9/hnnp/luZb7jmrULAbO/wEAAP//8Z4JcAAAIq5JREFU7V0HmBTFEi6CCBIkGMggWZIgiIDkIBkOJGdEkgQziCAYURQxIVkySM4ZyVGSShBBUHL0ISICknz199lD39zs7uzO7N3uXtf33e2Enp6e6pqerq6qvxL9y0R+0u2/DtG1w8N8XpX36XF09ve/RblW9R6lkW9X83mNVYHVW4/TorVHaN32k3Tk+KUYRR4r8CCVLZ6Z2jUsRIXyZIhxTu9Yc+DMhb/pyt83rE8GcDR92uSUIW2KAK68e8moGXvo1cHrxYF1k5tSiUIP3z3JW536r6TpSw9SokREl3f1jHFO3dn3y+/UpNciOnnuinE4aZLE9O6LT1GXZkXpnqSJjeNubOw//D8q3XSaURXuMaRPRWPfn42cVcbS/y5dE5e0aVCQhg+sGuvyW7fv0DtfbaOff71Ia7Ydp39u3DbK3J/6XqpaOjuVLPIw9Wxd3DiuN+5y4Pm3V9PkBT8ZB06u70zgWyRQhVYz6PsD58WjtI0qSF8NiC0/Vs/ppgzL+m/f+ZfSlrz7jRj8agV6vuVj8nTY/2L8zFpxNOE5QV/2r0LtGxXy+7nclsdfjv5BE+btp9QpkxHGkCwPp/K7TfKCuBxL3ZRBO+OofMajJy9TkfoT5S691L4EvdOrrLHvbcPtvvN0rwFfbKFPJ+wSp998vjT1fu4JT0UDPu6WPJsbEK7yiOdwSyb9kUcz/7D/ybid9NawrcapTdOaE+a9dihQGe3YbwXNXHZI3KJMscy0ctwzPm/n1hzO5418FEiUNBWlLDJIlEoULAXn3P+uUp7qXxtN+bh3Bera3NkH7sSZv6hgnQlGnW/1KEOvPFvS2A/2BiaTt3mCeV+Ke4J9qwRXvxsvx28n/6SyzafTlat3lbcH0qWgKR/Xoqcez+IXT/sM2UBQ/ZvVyk8lCsdUttSK1m0/QfW6zjcOvdqxJA3sXsbYt7tx4izLdu0JRvFPXq9InZsWNfatNrq99S1NWXhAnHowfQr6YX5bSpMqmVXRoBz7869/xEQqcWLWOsOE+n6ykYZN/cFo7eZvmlPR/PY+FsZFvIE6zvJCgVvUsHqeWEq9v3UHquC4JcNqe4Oh4IQSz8082z6rFT2aO73KAlvbbskjbnbh4jXKX3Mc3bx1R9w7R+Y0tHNOa0p+bxJbbVELxfVYauZnXI2jF/+8ToXqTDS+GVgUwOKAHXKj767/c5ve+HSj19tt33OWfvz5gigDhbV2xUc8ls/4QMqAFCAz/wOVZ7Vh4SyPeA4zTwKRyUC+6yoPsf3Nkp+p85urxOH7kielfYvbE773dihQGdUKjg8LzspNR+kZXkmXtGpcYypdLJPcDeh3x96zVKXdLOPaE+s6U9o0cbP6umvfOardeS5dZyVn0EvlqHurYkY79IZzDrih4DR5YREt33jUaAysPYtGNqSKT2Q1jtndmLfqMLXts4ySJ0tCMz6rR1VKZ7O8dPaKQ9Sh7wrjXKBK9+K1v1KLV5YY9aye0IRKFc1o7FttNOy+gL5l6yYIq+NYJY8rav3aUlqw+ghlfigV/bCgDaW4N2lc3drRfd4bsY0Gj9lh1DHzs7pUq4LnCYNR0LTxVIvptOdg9KTDdCqgXSz+YBHICQWq4Lglw2rbg6HghBLPPxq7g94dvk08MhYVTq7vIqzLKg/sbLslj7jXiG9+pN4fb4hx260zWlDhvA/EOGZnJ67HUrdkMJBxFFaGRTz+Fs6bgaqVzUF2F2zc6Lu/2BKYufwoO11iu8ylnT0oiZ+LTm7Js9rIcJZHPIcbMhmIPKo8xPYdthKvZm+NPazk1q2ci/I/Yn8hJVAZ1QqODwVHfWEwYJze0IVS3ufM8jFy+o/02kfRA3iubPfTjwvammUhaPu4L+4PerlDCXq7pz0zdtAaFGEVO1Vw4MYYxRN+lTo0Kkxf9K+sHrK9DTe+fDXGifJYmcWKlhVBocJkQFLfLqXojS5Pyl3bv5gs4Z0B4eN0elNXwmqNN8pReQxhBRI09r2nqVnt/N6Ku3YObnSPVB0rLFx22+razR1W9Obnm+mzibuNWhaOiKLKT1orr0Yhiw0stGDBxS2KTwXHLRlWeREMBSeUeN6YF+9W8CIeqFqZ7DTvqwZi299/bskj7gtrLqy6Ku2a25ry5UynHvK5HR9jqVsyGMg46pMhHgq40XehouC4Jc8qq8JZHvEcbshkXMqjynu5HaiMagXHh4LT6tWltHDNEcFnDLAYaJ0SzHQw14Ga1MxH4wbVcFql7etLNZlKB45cFOVnfV6PapbPaftaXdA3B5wqOGZTLO4Y6OQV13734xmq1mE2NgV5shaa/XQR+zLo5XLyMtu/6gfGm0IlKzT7jn8/rw3lyZFWng7q7/xvD1Ob3svEPYo/+hBtmNosqPdzs/IXB62lr2fvM6rcOaeVXyti8kL4rF9j9xK3CMqs0wWgQC04bsmwyotgKDihwnO4rmavPJouXf5HPDIWNLCwEQi5JY+4999Xb4r38tutxyhlimTUrcVjNKB7ab+bFR9jqVsy6O84itXxy1dukFA02P3LH8uHG3134+ZtGjvr7nhk1VnLNvwm3KVw7umnclDVMjmsihnH0O/wXrBLbsqzes9wlkc8hxsy6a88qvyT2wiNuMTu4PCS8NcFPVAZ1QqODwWncN2JdOz0ZdFHTWvlo6/f962MIID6Lx5s0t2fXPZtjN8SjabQITYngz54pTz18OEmJgUDbkbmQGKs0J8+f4UKsLnP18RCjf1Jdk8SOr62k89rYjScd37/4xqd4sD3e7ktsD6hHk8EPiC+4cbNO5TpwZRGsavXbtJBfv4CudI7cglateUYrVBcuYwbBLiB9jzXpEiAV0df5lTBafD8fA66PxGjDYdXdaSHM9wX45jdHbN5/QjX9ZBFXfg4Zqlw18UAYBfD3qxi9zZGOcSrIW4N1LJuARr1TnXjnNXGnJW/UPvXl4tTkG0oYN4+aviI4SP+55V/KFvG1DGqhB/40VN/CtcMO6u9auwPYuDglucP4b3Eu3fx0nXKlim1JV/V+iD3f/BkEuOCatUC4EiSxIkpZ9Y0anGv2+rAjYKnN3YRcUReLwqTk4EqOG7JsMqmYCg4av3xuY1vEL5Fkuaz9aYqW3ECoWDIIyysiBMN1G00PsZSt2TQzjiKezXquZBOctwj4uggqyB/gTCC0XdWMhRskAE35dmq/eEoj3gON2TSjjxa8QzWr2FTvhdgSZgLgjAX/GF+G79iwAOVUfU6DTJg6qE/2G0mO7vPSHqfY1Z6tfGN6gTfePgMzmYLSQ2ThQSTM0wkMVEDAdUBjDfT8Gk/MorMPh68rogJHc5jYooVbmi/mATDbLhzX7R7CT4C3VsXixUYjpWVtn2WC4Xqf6ycSFcgWZ+875wv61MxD4gWCDCDkM5afkgEgMproOTAzU11ZTp26jK167ucTjKQwvmLV8VzwrVvw5RmVIh9g99mFA08G9qFCe1GXjV/JOv9skq/frH6jlV4twirSuCDE3Kq4MCdDEqrSnAbgftIIPTsGytEv+FayMi5Ld08KhCQSwyGoEbV89LEwTXFtt1/qjscrrHzoe336Sb6YvL34haVSmXjWKOoWLfDwIg4uFMsh7iH/JDDvRLyhxU2vG8T5/9kvCt52dqK9w9KuEqwxsKFDqvWUE5kIDPKSMWvQsmsNP4DzwsZQGXBu7lp1ynjPcb1QISBix0UZUlo11yOg8L7cO2fW+Jwvcq5adontUXAbcd+K+ngb9EWVX+Q65q+uJiwIgrCwsZZdgWMFApUwcHzO5VhMw8jWcEBCh/QiUAYo7G44O/KquRXKMpjfI2lTmXQ7jiKBcSBjEy2Y+852vrDadkV9GnfSn4t1MVV3wVbwXFTng1murgRX/KIR3Aik3bl0YpVm3efokn8XV7K3yppKcZC/Vmeh/hjZQxURrWC48WCY0afWDKqIVXwEegNxI3HGkyiW4wAg5V38wdjw46TVKfLPCEL3vz+EXS9iCdj09mV7er16IkRrCWnOAbog9HfCbhFqSRJwcJH6tzmbjHQZmBteeU/2OIl636VRQXSUcb/rCrJ7klMIwZWs7Tm7GT//GYvL6HzvCoPGOs+nUqx1SYxvc4oThIRZcandQ1EFEyQ3x+5jbbsPk0//IeYgpuCdyM49gfBaiqNfrc6tahTQD1ke9ttBadB1dyMVFbb9v2tCjpVcFQoRlm/P5Cf8hr87v7pPFXlGAt8CEFPFMlIayY2EdtW/9Tg5+ocpDp3mH/KntnXd8XXzwiZsbqXPFbzubmEQRDkKSYM7R/w+RZW5mN+yKFY16uSi1q/tiwW7Drqs7LKfD5pN08GztBPDIsNhCUQoGjV97o+B0C2ZDh4M0EZeumDdTSR4WthgenL9y9fIgtt4cnFG0M3ieJQcgB/KQkgD7A0frP4Z6MfypfMwtaislTnP7APWTZnlvtp76K2ctfrb61Oc4WChUIAcQCYQ6SQEwXHqQybeWhWcD5ki3ukALP0eHeNkGU8c0FOTfDdzJbmx7e9H4ryGF9jqVMZ9HcchWUBzyppy/QWVCSffUCGuOq7YCs4bsqz5KWbv/Elj3gGJzLprzxa8Uwu+uNcIN+rQGVUKzheFBwE8SK4SZKvXBPwg4XJGMGNzTlQegyv5ppJrRP5brb5+Kj0em8tjZ8b7duKCSpWpGdwHhWgYfXrWpq+23PGmFzhXvsXt6PsDKtpJliOEMwtV6w9lVOvm8vuQ10GrBKIa0Bomj60joHMAmQuTN5A8I9+reMT6qV0+NglKt5wsjiGnC1w/YK7VI1yOenIiUviPCwKe7m9gbpfYUUciqRbBAUSVikn5FTBqdh6hlBM1DakZ5emtZOaxrJGqGXM2+BNOUbIkq6QOK8qouby2H/7q6005Oud4lQgE54PR29n5fY7cb0dQA68L5nZagQLDGjqkNpUv0pusW31zwzZDrnD+4RJKHI+AGWuyQuLDcXFW84q9WPrrZxsB6xIiMdbzwsUyEcEyyveR5Dq+olzf+zoLi8zflVLGsYGoMncYdGtVjY74/QfFJag7i2L0Yevljeu8bZRpN4k4Y6HMnh2KMGRQk4UHKcybOYhFqxyVbs7eezfrTQv8sQc68zXhMv+k5z3Coo+SLqk4jvRga2+WOCARdEuhaI8xtdY6lQG/R1HsYDSqMdC0VWwQh9e2dGjld6qP+Oq79QxNxh5cNyUZys+OT0WX/KIdjuRSX/l0YpPXQd+S1MXHRCnPC1kWl0njwUqo+Gs4Fy7dS8lLzCAUqdOTUHJg9PylaUiMSeYjEk4LDKeCKvMgLYcM3OvKOLJ2qMqBp6SIKr3KNv8G9p76Hf1kJjMwD0HsQowTT/97BxxHpPKs5u7WvosS7hgFLQzeUXwNxQUPBeSX+6Y3crALIdF6dFa4w13t0mDaxHyX6iEhKbgHwgxB5d5glifLSQTP6xFiEVYvuko53TJTMC7jyRyquB8MGo7DRoVrSSofMmdPa2wvkDZ8UVQbnrx6iwSikpCzgEoON4Ikx18JECQJcRomWO+vF0P9Dco9yA76IBI8vlE46lGlQeWdaCsXhL6maEqoYw+yPmBAMIAlzQQcvnA8gryNpDivrg/CFY7WO+8kRqvgwkuJrqSkLwOH28Q3NPwrpipTLNvCAkHQchphEDzFQw5/3jBh4SlExZSTCq9xR/JOlE2t5KbK1CAAVlfqP06UXCcyrCZF2ZIfyzUwAUo3AljMGB9pbvn5/0q0zNP5yW4gmz5/rSh8Nh5zlCVx/gaS53KoL/jqIowBQRKuMnapbjsu2AqOG7Ks13e+VsuvuQR7XQik/7KoxVfCtWZQMfZTRsEzxB86+ySExkNVwUHACljGUQI8etRUVHuKzjIF1Ol/SyB3S07Ah1TrUzMSQjidODyMpQnOUCsAkEZOrTiWcPaIa/Hrwpa8Nkblalj48Lq6Rjb8FkEyo3qiobsv1j9kIQVd2jnICRyXMcr/VbUqf9KY8Jr5bpjvkbVuF9s9zi9+8JTogjicZq/tMTInYHEk0tGN4zlT/n6kI301bS7iQgx4d3KpvNITy7qVMFBjFR1Rj1TLS+ybzCJf5dX6+tUyiUPxfqFuxf86n89Ee1+hQKwiiCmxBsghKyoNCs4QF0BIR4JcUl2SHW9RHkoKj8t7eB1wj6NV3S68MoOCCuPAEDwRmaZAsjAsjGNKEeWaIsl4rqyVRojFGjU46n9cE0rWn+SuBV4cmzNc5SK3dQ8EXiJYGwo+yiPdsq8VV9xokzEEWGiCIVrKitL5rg7q/cYsN+A/w6EEEcEaxIIii8CNiOJnCg44EOgMmzmIdxtkSdp7XfRCjPOo9/hAmQGuDBfG+r7ZmQluE0ifhKTECTWxDOa3as9PVOoymN8jqWBymAg42j5ltMNd/CRb1WjVvVju9eGQt8FU8FxU5498crp8fiUR7Q9EJkMRB7NfFKThCIsA55Q3r635uudjC/hqOAcZ1CzIjw/gYeLJFcsOFhhHT9nP21nty81fkTeBL+Y4KirrJhUqQoIyjz7TGHCipiZgECGvBuSAEsLeFpPtHT9b9TspcXGaat8KGoMg1n5kRdi8pWL7ysBBnwlXwSqEyZ0cnUP7jhAqEI8EIL6YcGB2xlgHN9iSxK2zVSOB10ZowNrwIqxzzhOkGq+RyjuO1Vw8ExQmhtzThpkfraiJx/LJODFC+bOQNkZvetXnrCD13BXRJyVlEeglQAZrEXdR2PIrFWd8tjQ8bto4JfR1gi4HXqDZ0WMz5SFP9HW788Y1glZD35hzSjJSnfR/A8KWVHPYfuVD9fT6Jl7xGHAlQO23BupMgXL0rfjG8cI6FcHYygbxzloWkUrk3VDKUEMGQioUUCP8kZw05zGMTQgJCh7j5V9+CUjqFUqg0haNuqdaiK2zVyX+T12km8EdavwtwO7lyFkpo4kcqrg+CPDVnzr+d4aYd1DQjoZ/6iWgxticba85WU4c18ogep1obSNsaUqL+CZCQtRc3lhA4qzXQpleYyvsdQfGXQyjuKbjjmFnAz9zFbwLF6s4OY+jcu+C6aC46Y8m3nk5n58ySOewa5MOpFHK14BlAeKBggeC+sZcMofciKj4ajgIGHv4wq6JXjlioKjTnz86QBzWU+oVys3H6NnOEYHhAkYoF29raojcPlLRi8DwToDxURFnoCbC1DeZFyNJ0Q2uBzU6Bjtxgb3GKxAQ+nwRGqcEMpAoZOTZgQvAmGrZb0CIvu7VR1Y+cxWabQx6PqDDmVVXzgdc0PBwfPCzWz0jD0izmnX/nO2WQBEOlhdYAKuUCqrpbuit8rO/v43FY+aQleu3mAXwiy0fGwjj8VV66HHQnzCk2WxUtuZBEspqF/XJ+n1zqXEttU/s0zN/KwuIS5MJfUD6gmRDeXrMsgHYmlAQ/pU9BprALnPWG6kYRUSF/33D+AEUMya1soveO7pnVLfY1gw4VLmxAIgfblhTTiwpL1fq2Fq+0N126mC448MW/HAKhjYqhz68hy7BIcjwRqZp/o4QoA6CEpb26iCNJAXROy4warPHOryGB9jqT8y6GQcXbD6iLAyoj9g4d/tZ56+uOw7dXx2OwbHTXlWZTsY2/Ehj3gOuzLpRB6t+KXmsFG9gazKWh1zIqPhqOCAB0BIRp47OT67ouAgr8U1tk4AJSwpWyWS8KCvKhRWzMcxWDpusq/crVu3hbKB1WWryY4arFWiELuTTW7qqUpxXHYsdqxWatWVYUy2jq/rJD5U5kpVH107AdVwccLqNAjIToivgeaNCe+D6VOYq4+1j9w0sECAEGOze17riMnREethTQfcUnDUahHEjkBSDFAIeoYl8Pbtfyl92uQcH4W/FCKuozRbdrAC65QA2wy3Kyi2WG3xZGWEVe86K2Lq+5KYL7rDWsFtnkDd4jbeZAsn3iGzSRqWT8QA4J0DzfmiHj3NABSeSJUpWGVOMpqg2XKoWnjgUonB1ExQlHJWubso4Ats4ySjECLeTBLiFEoVzUSlijxMxfkdtjM+qO+xp3bJ+n39bmN32OrPzhbFIingXX1upwoO6rIrw+p95TZkBIRvQNIkicR3AHL9L8s1ZBsLSgA3waq5PzFqsv5Q+cVYAqhzvL8lGTAjELCXcJPHuBxL7cqgk3EUqI5jZ0XH/XZqWoSGvl7JtniFW9/5ejA35NnXPdw+H5fyiLbbkUkn8mjFHxX8wdd33ny9UxkNVwUHfPg3cUr6dEEKGjhwoDsWHDNz3d5vwpN+uLaAfA1GQLPJVnG04Sa2igOSSxfLJK6V/17+cJ0BaiBza8hz6q+aWNROQHU1jgGR8USBWF9UhcqT25zavkjaDoaCE9f8wQQO4BYIwvdmCXHSru8PnCdMZCX9tvo5oaTJffOvKlOVn8wmgAXUMvi45a4+1rA0bp3RggrnjQ2VqiYWtQO2gXxTSBgo6RgDL/izwq2+x7DWntzQ2W+rmrw3fuW7ibij72a0tIR2V8uH47YbCk5cyHA48tbtNicEeQyUZ3EhgwACAmIpCLm1MA+wS7rv7HIqcsrFhUyq3AL6KLx54AmBxcATHH+DxXi75FRGw1nBSZQ0FX25JA317ds3PBQcIB8BEQLkKxhQdWcDnDImRmZ3NuTbkcHkngALEE9TLGqyuCeu9xVQjYJqvVHV8tDkj2qJ683/sPoOVzszqa5HQLjChDShUCQoOOgrNZ7FSYZzT/0O8ytM1yDEEe1nVytvpMqUlXsDoNOfYyANkDfEQ3XAswO2odaLurfPakWP5k6PzRgEi5T5/UQB9T3GAgUWKgIliSIH6zDAFZCXKhLJDQUHfAm2DEci7/15poQij/7wxFw2mDKoJmCEtf342s4iznYNQ9C3b1TI0ptDtk/3neREwvsNpkyaual+/+x4LanXuyGj6ve+TLHMIr2Deg+r7VCZwy1af4ra9V7EngJ3Ql/BMbu6eJooSYYj0BtBYSDk91jMiTJVAoxzkfoTjUN7F7Zjd4lkNJWDoQFyIIOr1YkkJkRIvrjn4AXq9tZqGsNJNrGKbSY1RgGTzz2L2sVwxYE2jvbBNI6JFpIbSkJOk6xseYJPLFyI4Eok2yLLRPJvqLwcbvBYxo7AErKaE4S62Y+qG6Q3JRrPocoU9q0SiHZ+cxV9wyAYICSORQJZQJXD2gLXSknqIgPeqQols3LyzrViMoB4HDOp8Ws499WAqiJWQS138LeLIg8F3i9z7iv1PfYF2qDWad4GDypwjiSg6wXix2yuL5T33VJw8IzBlOFQ5mGw25aQ5NEpL4Mlg2rqB7gpf/lmZerxzhp2qUwk0FSt8uHhWXTfOe3R8L8+WDJp5gzy4iE0A+TPd8stGQ1HBQdgZ4iDgrdJunTpaOLEiaGv4Ayf9iP1GbJBdDQm/r9ve94yTkcU4H+V287izO3RKFpWvvaq4pKcrSizOIah57trRXzG0jENjbgJFQEKeXcQfA6UILRhI2dct8o7ok7K0J6erYuLIPDrN26xchTN/A07TxLieYYPrBrjOVSN3emKteRFOP1GkoIDRfb5t79lpLQDQsmGjMGa6JSATFWcrYqnz18RVVnJt3oPNZGdJ2tmHraOIhEoqFeb4uIX/sZNauajcYNqiH3A4Baud3dRADFwANQAMqCnnDmAeM5fc5yBpoX3BW6eRfI/QEeO/8kWmqM8gO8Qk4pFI6OM907ckP+plqdArZkY7KN6LCD4IwPgA5DfVjF+8p7h/qsqOFBAAUMfKAVLhgNtTyRcl9Dk0WmfBUsGEYj80dgdMZoHoIF5jIInofNjnOQd3XdmjiTM/WDJpJmbal66NbxIKpNjm8up+27KaONei2jFpqOi+nCx4AxjlFcgx5V/IjtNnrWBcuTg1DQcAMrTMf/o9l+H6NrhYf5d5EdpBIXv3HuONu46yUH7Bwj++JIAsQzXLcCNmpNdmhGjrOJvVGQKWSdggWfzJBSwvJJqdZorAknlPn6BpIakj6WKZlQPG9twoyvK7m8QNCvC5AqTSCQbNU+0VEg/XxNXq7rD/VgkKTjoCwBotOuzjIDWg3icmZ/XDVjJgTUEqxOzl/8iEtTKvgbEco9WxSh/rnSEQchMcrUJx63ib8yJwOT1XZs/RoNfLW/I6Madp6h257nytPHbsm4BGsH5I8yyLAuo8T/ymPoLSN1Jg2vGeO9wXvU/hvXrGLuQJL83tkunWpd5G+9gQ85SLhL6MjredH5vzeAK5mvCfV9VcIDuBcUa/W4H0MHq2d2UYav6E9KxhCiPbvRvMGRw8Jgd9N6IbaJ5GLuQrPhzzq2HxNpWpPvOiisJ91gwZFLlJrx4slQYLRBI87HivcsGwp+bMorUGdUYCv/6f0BG4aLgYAEYukLGhx+ilEUGCZaGpIJjtoSonS+3kS8HLmUqqe5nwLTft7hdLH9aWINgFQLB/xaWmS/6V4mFga8qHBgEo6rmofdfLmdpuVHbAOFo03sZISmiJFxfhScavTmTu9VEFOWkxQgTEwR6IxdKQqJIU3DQd4gv6dR/Fc1d9YtQcuYPb+D3ZBPILA+WGe5VFDzFzkiZwsVWsWZAlctXY5wBl46koX0ZchpZ51UC5GK+GuPF8+A4oJr7dilFsGx6I3wI+jFkO3L2IEhTEhYm2jUsyNafkpbue6rFqGmtfPT1+9GWJHm9r1/wvW6X+UK5wRjx0WsVLGPefNUTbudVBUe2PdV9yShF8mjlMHumNOQLgVJeJ3/dkGFZV0L9Tajy6FZ/uy2DQPEDCh7GJLiaY4HTE+m+88SZhH3cbZlUuYkUEPBgAL3DCcpfal9CPR1r26mMApDg1xPRgBs3GNUYC4wqhYuCI9sMkIGQVnAwqQNcroAbZZcwK6jRFLyyC2XATAeOXKRjnNEU8MyYsJkJgxoGN9it8j+SLpZiI8tjEMTqL9qCHDZWdcmyVr9AaEGMAaw+WKnGrzdCbp7Nu09TzqxpuF0JS7kBX4A8NnvFIcEiTEozP5QqBrtgCdl76AJhwmYFYxyjcIjtTJi7n2YtP0QLRjSwlFlfzYVlEu8CLBBYjU+kQkqzPEOWU953T6xqsKqzfe9ZYTlCklMo9GaCIg7eP8xKRyH+2FuBX+AaWFV37z8v3pdCeTP49RxXr92kHTxoYyCGcgR3EF9WBcS7wXWuXIksflu+AOJRv9t8oajB1S6hENxvz1yIdl+0eua0aZILi5/VOV/HnMqwr/oj+XxClUe3+zQ+ZFD3ndu9GFn1BUMmZT4dfCMPcAJabwo4uOlURuFujvx9nggLY8j15YtCZQ4X8gqOL0bq85oDmgOaA5oDmgOaA5oDmgOaA5HEAZmepHGNfCJuNJKeLS6eRSs4ccFlfQ/NAc0BzQHNAc0BzQHNAc0BzQETB+Ad1HfoRuGZ8ULbx4V3hEyvAI+MXXNae/QwMlWldxUOaAVHYYbe1BzQHNAc0BzQHNAc0BzQHNAciCsOqOA9j2S9X6Rp+GzSbrrBLtbTh9ahGuVzxlVTIuo+WsGJqO7UD6M5oDmgOaA5oDmgOaA5oDkQLhwACE+zFxcbcMxoN3Lnfdy7gog9DZfnCLV2OlZw/r11mW5fjk4OGGoPp9ujOaA5oDmgOaA5oDmgOaA5oDkQ6hy4+MdlOnP2AsMbP0AZ0t8f6s0N/fYlvoeSpo3O6RcQTHToP6FuoeaA5oDmgOaA5oDmgOaA5oDmgOZAQuSAVnASYq/rZ9Yc0BzQHNAc0BzQHNAc0BzQHIhQDmgFJ0I7Vj+W5oDmgOaA5oDmgOaA5oDmgOZAQuSAVnASYq/rZ9Yc0BzQHNAc0BzQHNAc0BzQHIhQDmgFJ0I7Vj+W5oDmgOaA5oDmgOaA5oDmgOZAQuSAVnASYq/rZ9Yc0BzQHNAc0BzQHNAc0BzQHIhQDvwfzjMjitNoVkUAAAAASUVORK5CYII=;" parent="1" vertex="1">
                    <mxGeometry x="198" y="580" width="324" height="25.17" as="geometry"/>
                </mxCell>
                <mxCell id="22" style="edgeStyle=none;html=1;exitX=0;exitY=0.5;exitDx=0;exitDy=0;entryX=0.5;entryY=0;entryDx=0;entryDy=0;" edge="1" parent="1" source="20" target="5">
                    <mxGeometry relative="1" as="geometry"/>
                </mxCell>
                <mxCell id="24" style="edgeStyle=none;html=1;exitX=1;exitY=0.5;exitDx=0;exitDy=0;entryX=0.5;entryY=0;entryDx=0;entryDy=0;" edge="1" parent="1" source="20" target="6">
                    <mxGeometry relative="1" as="geometry"/>
                </mxCell>
                <mxCell id="20" value="Fixed Point P" style="rounded=0;whiteSpace=wrap;html=1;" vertex="1" parent="1">
                    <mxGeometry x="300" y="200" width="120" height="60" as="geometry"/>
                </mxCell>
            </root>
        </mxGraphModel>
    </diagram>
</mxfile>